<svg width="21" height="20" viewBox="0 0 21 20" fill="none" xmlns="http://www.w3.org/2000/svg">
<rect width="20" height="20" rx="4" fill="#88C1FD"/>
<g clip-path="url(#clip0_3784_6934)">
<path d="M20.7419 13.3521L16.3615 8.99993L20.7419 4.64778C20.7474 4.69163 20.7502 4.73612 20.7502 4.78118V13.2187C20.7502 13.2637 20.7474 13.3082 20.7419 13.3521Z" fill="#FF834B" stroke="white" stroke-width="0.5"/>
<path d="M6.27579 3.63297C6.31866 3.62772 6.36215 3.625 6.40618 3.625H19.5937C19.6377 3.625 19.6812 3.62772 19.7241 3.63297L13.8179 9.50943L13.8174 9.50988C13.3667 9.96062 12.6332 9.96062 12.1825 9.50988L12.182 9.50943L6.27579 3.63297Z" fill="#FF834B" stroke="white" stroke-width="0.5"/>
<path d="M5.25 4.78118C5.25 4.73612 5.25285 4.69163 5.25834 4.64778L9.63871 8.99993L5.25834 13.3521C5.25285 13.3082 5.25 13.2637 5.25 13.2187V4.78118Z" fill="#FF834B" stroke="white" stroke-width="0.5"/>
<path d="M11.166 10.5263L11.166 10.5263C12.1774 11.5376 13.8225 11.5376 14.8338 10.5263L15.3443 10.0158L19.7237 14.3671C19.6809 14.3723 19.6376 14.375 19.5937 14.375H6.40618C6.36227 14.375 6.31892 14.3723 6.27616 14.3671L10.6556 10.0158L11.166 10.5263Z" fill="#FF834B" stroke="white" stroke-width="0.5"/>
</g>
<defs>
<clipPath id="clip0_3784_6934">
<rect width="16" height="16" fill="white" transform="translate(5 1)"/>
</clipPath>
</defs>
</svg>
