<svg width="22" height="20" viewBox="0 0 22 20" fill="none" xmlns="http://www.w3.org/2000/svg">
<rect width="20" height="20" rx="4" fill="#FFD05E"/>
<g clip-path="url(#clip0_3787_7012)">
<path d="M15.793 7.17188H21.5898C21.6785 7.17188 21.75 7.2434 21.75 7.33203V15.5898C21.75 15.6785 21.6785 15.75 21.5898 15.75H15.793C15.7043 15.75 15.6328 15.6785 15.6328 15.5898V7.33203C15.6328 7.2434 15.7043 7.17188 15.793 7.17188ZM19.1289 8.36719H18.2539C17.8891 8.36719 17.5938 8.66257 17.5938 9.02734C17.5938 9.39212 17.8891 9.6875 18.2539 9.6875H19.1289C19.4937 9.6875 19.7891 9.39212 19.7891 9.02734C19.7891 8.66257 19.4937 8.36719 19.1289 8.36719ZM17.4336 14.6094H18.2539C18.6187 14.6094 18.9141 14.314 18.9141 13.9492C18.9141 13.5844 18.6187 13.2891 18.2539 13.2891H17.4336C17.0688 13.2891 16.7734 13.5844 16.7734 13.9492C16.7734 14.314 17.0688 14.6094 17.4336 14.6094ZM17.4336 12.9688H19.9492C20.314 12.9688 20.6094 12.6734 20.6094 12.3086C20.6094 11.9438 20.314 11.6484 19.9492 11.6484H17.4336C17.0688 11.6484 16.7734 11.9438 16.7734 12.3086C16.7734 12.6734 17.0688 12.9688 17.4336 12.9688ZM17.4336 11.3281H19.9492C20.314 11.3281 20.6094 11.0327 20.6094 10.668C20.6094 10.3032 20.314 10.0078 19.9492 10.0078H17.4336C17.0688 10.0078 16.7734 10.3032 16.7734 10.668C16.7734 11.0327 17.0688 11.3281 17.4336 11.3281Z" fill="#FF834B" stroke="white" stroke-width="0.5"/>
<path d="M14.1523 4.98432L15.1612 5.99314C14.6599 6.23054 14.3125 6.74134 14.3125 7.33203V14.1094H9.23047C8.69003 14.1094 8.25 13.6693 8.25 13.1289V3.23047C8.25 2.69003 8.69003 2.25 9.23047 2.25H11.8516V5.69141C11.8516 5.95787 12.0118 6.19917 12.2591 6.30134C12.5059 6.40383 12.7899 6.34675 12.9785 6.15819L14.1523 4.98432ZM10.0508 12.9688H11.6914C12.0562 12.9688 12.3516 12.6734 12.3516 12.3086C12.3516 11.9438 12.0562 11.6484 11.6914 11.6484H10.0508C9.686 11.6484 9.39062 11.9438 9.39062 12.3086C9.39062 12.6734 9.686 12.9688 10.0508 12.9688ZM10.0508 11.3281H11.6914C12.0562 11.3281 12.3516 11.0327 12.3516 10.668C12.3516 10.3032 12.0562 10.0078 11.6914 10.0078H10.0508C9.686 10.0078 9.39062 10.3032 9.39062 10.668C9.39062 11.0327 9.686 11.3281 10.0508 11.3281Z" fill="#FF834B" stroke="white" stroke-width="0.5"/>
<path d="M13.6856 3.584L13.1719 4.09771V2.25H15.1328V4.09772L14.6191 3.58404C14.6191 3.58403 14.6191 3.58403 14.6191 3.58402C14.3613 3.32616 13.9434 3.32616 13.6856 3.584Z" fill="#FF834B" stroke="white" stroke-width="0.5"/>
<path d="M20.0547 5.85156H16.4334C16.4464 5.7999 16.4531 5.74618 16.4531 5.69141V2.25H19.0742C19.6147 2.25 20.0547 2.69003 20.0547 3.23047V5.85156Z" fill="#FF834B" stroke="white" stroke-width="0.5"/>
</g>
<defs>
<clipPath id="clip0_3787_7012">
<rect width="14" height="14" fill="white" transform="translate(8 2)"/>
</clipPath>
</defs>
</svg>
