<svg width="26" height="21" viewBox="0 0 26 21" fill="none" xmlns="http://www.w3.org/2000/svg">
<rect y="1" width="20" height="20" rx="4" fill="#FF834B"/>
<path d="M19.7082 2.96675V3.19467L19.9352 3.21568C21.0135 3.31553 21.7872 3.68346 22.3116 4.24025C22.8377 4.79876 23.1374 5.57303 23.2174 6.52926L23.2173 6.52927L23.218 6.53505C23.2257 6.60736 23.1566 6.70008 23.0499 6.70008H8.94987C8.85471 6.70008 8.7772 6.6166 8.78252 6.52701C8.86282 5.57182 9.1624 4.79832 9.68809 4.24025C10.2126 3.68346 10.9862 3.31553 12.0646 3.21568L12.2915 3.19467V2.96675V1.66675C12.2915 1.46315 12.4629 1.29175 12.6665 1.29175C12.8701 1.29175 13.0415 1.46315 13.0415 1.66675V2.91675V3.16675H13.2915H18.7082H18.9582V2.91675V1.66675C18.9582 1.46315 19.1296 1.29175 19.3332 1.29175C19.5368 1.29175 19.7082 1.46315 19.7082 1.66675V2.96675Z" fill="#40A574" stroke="white" stroke-width="0.5"/>
<path d="M13.8312 15.3702L13.8446 15.3594L13.8565 15.3469C14.0475 15.1453 14.1667 14.8681 14.1667 14.5833C14.1667 14.2984 14.0475 14.0213 13.8565 13.8197L13.8446 13.8072L13.8312 13.7964L13.7687 13.7464L13.7062 13.6964L13.6977 13.6896L13.6887 13.6836C13.6278 13.643 13.5636 13.6096 13.496 13.5853C13.432 13.5549 13.365 13.5328 13.2953 13.5207C13.084 13.4792 12.8681 13.4995 12.671 13.5856C12.5291 13.6411 12.4218 13.7182 12.3244 13.8058L12.317 13.8125L12.3102 13.8197C12.1192 14.0213 12 14.2984 12 14.5833C12 14.8681 12.1192 15.1453 12.3102 15.3469L12.317 15.3541L12.3244 15.3608C12.4224 15.4489 12.5305 15.5264 12.6737 15.582C12.7984 15.6336 12.9383 15.6666 13.0833 15.6666C13.1545 15.6666 13.218 15.6573 13.2671 15.6501C13.2734 15.6492 13.2795 15.6483 13.2854 15.6474L13.2854 15.6475L13.2911 15.6465C13.3623 15.6347 13.4307 15.6123 13.496 15.5812C13.562 15.5576 13.6247 15.5252 13.6843 15.4859C13.7213 15.463 13.7529 15.4368 13.7744 15.4186C13.786 15.4087 13.7946 15.4012 13.802 15.3948C13.8128 15.3854 13.8208 15.3785 13.8312 15.3702ZM13.8469 12.4398L13.8472 12.44L13.8565 12.4302C14.0475 12.2286 14.1667 11.9515 14.1667 11.6666C14.1667 11.3818 14.0475 11.1046 13.8565 10.903L13.8566 10.903L13.8518 10.8982C13.7509 10.7973 13.6304 10.7214 13.4944 10.6684C13.0912 10.4964 12.6181 10.595 12.3149 10.8982L12.3148 10.8981L12.3102 10.903C12.1192 11.1046 12 11.3818 12 11.6666C12 11.9515 12.1192 12.2286 12.3102 12.4302L12.3099 12.4305L12.3197 12.4398C12.5213 12.6308 12.7985 12.75 13.0833 12.75C13.3682 12.75 13.6453 12.6308 13.8469 12.4398ZM16.7636 15.3564L16.7639 15.3567L16.7732 15.3469C16.9642 15.1453 17.0833 14.8681 17.0833 14.5833C17.0833 14.2984 16.9642 14.0213 16.7732 13.8197L16.7732 13.8196L16.7684 13.8148C16.5602 13.6066 16.2742 13.5104 16 13.5104C15.7258 13.5104 15.4398 13.6066 15.2316 13.8148L15.2315 13.8148L15.2268 13.8197C15.0358 14.0213 14.9167 14.2984 14.9167 14.5833C14.9167 14.8681 15.0358 15.1453 15.2268 15.3469L15.2266 15.3471L15.2364 15.3564C15.438 15.5474 15.7151 15.6666 16 15.6666C16.2849 15.6666 16.562 15.5474 16.7636 15.3564ZM16.7478 12.4535L16.7613 12.4427L16.7732 12.4302C16.9642 12.2286 17.0833 11.9515 17.0833 11.6666C17.0833 11.3818 16.9642 11.1046 16.7732 10.903L16.7732 10.903L16.7684 10.8982C16.4653 10.595 15.9922 10.4964 15.5889 10.6684C15.453 10.7214 15.3324 10.7973 15.2316 10.8982L15.2315 10.8981L15.2268 10.903C15.0358 11.1046 14.9167 11.3818 14.9167 11.6666C14.9167 11.9515 15.0358 12.2286 15.2268 12.4302L15.2266 12.4305L15.2364 12.4398C15.438 12.6308 15.7151 12.75 16 12.75C16.0711 12.75 16.1347 12.7406 16.1838 12.7334C16.1901 12.7325 16.1962 12.7316 16.202 12.7308L16.202 12.7308L16.2078 12.7299C16.279 12.718 16.3474 12.6956 16.4127 12.6646C16.4802 12.6403 16.5445 12.6069 16.6053 12.5663L16.6144 12.5603L16.6228 12.5535L16.7478 12.4535ZM19.6803 15.3564L19.6805 15.3567L19.6898 15.3469C19.8808 15.1453 20 14.8681 20 14.5833C20 14.2984 19.8808 14.0213 19.6898 13.8197L19.6899 13.8196L19.6851 13.8148C19.4769 13.6066 19.1908 13.5104 18.9167 13.5104C18.6425 13.5104 18.3564 13.6066 18.1482 13.8148L18.1482 13.8148L18.1435 13.8197C17.9525 14.0213 17.8333 14.2984 17.8333 14.5833C17.8333 14.8681 17.9525 15.1453 18.1435 15.3469L18.1432 15.3471L18.1531 15.3564C18.3547 15.5474 18.6318 15.6666 18.9167 15.6666C19.2015 15.6666 19.4787 15.5474 19.6803 15.3564ZM19.6645 12.4535L19.678 12.4427L19.6898 12.4302C19.8808 12.2286 20 11.9515 20 11.6666C20 11.3818 19.8808 11.1046 19.6898 10.903L19.678 10.8905L19.6645 10.8797L19.602 10.8297L19.5395 10.7797L19.531 10.773L19.522 10.7669C19.4611 10.7264 19.3969 10.6929 19.3294 10.6687C19.2653 10.6382 19.1983 10.6161 19.1286 10.6041C18.9174 10.5626 18.7014 10.5828 18.5043 10.6689C18.3624 10.7245 18.2551 10.8015 18.1578 10.8891L18.1504 10.8958L18.1435 10.903C17.9525 11.1046 17.8333 11.3818 17.8333 11.6666C17.8333 11.9515 17.9525 12.2286 18.1435 12.4302L18.1432 12.4305L18.1531 12.4398C18.3547 12.6308 18.6318 12.75 18.9167 12.75C18.9848 12.75 19.0585 12.7394 19.1113 12.7318L19.1187 12.7308L19.1187 12.7308L19.1244 12.7299C19.1956 12.718 19.2641 12.6956 19.3294 12.6646C19.3969 12.6403 19.4611 12.6069 19.522 12.5663L19.531 12.5603L19.5395 12.5535L19.6645 12.4535ZM9.33333 8.44995H22.6667C22.9869 8.44995 23.25 8.71302 23.25 9.03328V14.1666C23.25 15.3783 22.947 16.3498 22.3272 17.0173C21.7105 17.6815 20.744 18.0833 19.3333 18.0833H12.6667C11.256 18.0833 10.2895 17.6815 9.67278 17.0173C9.05296 16.3498 8.75 15.3783 8.75 14.1666V9.03328C8.75 8.71302 9.01307 8.44995 9.33333 8.44995Z" fill="#40A574" stroke="white" stroke-width="0.5"/>
</svg>
