<svg width="21" height="20" viewBox="0 0 21 20" fill="none" xmlns="http://www.w3.org/2000/svg">
<rect width="20" height="20" rx="4" fill="#FF834B"/>
<g clip-path="url(#clip0_3787_6996)">
<path d="M14.4435 12.3227C14.4283 11.9818 14.162 11.6689 13.7788 11.6689C13.437 11.6689 13.0968 11.9615 13.114 12.3451C13.1292 12.686 13.3955 12.9989 13.7788 12.9989C14.1205 12.9989 14.4607 12.7063 14.4435 12.3227ZM14.4435 12.3227L14.1938 12.3339L14.4435 12.3227C14.4435 12.3227 14.4435 12.3227 14.4435 12.3227ZM19.7598 11.7701L19.7136 11.8636L19.7475 11.9622L20.7086 14.7593C20.8023 15.0322 20.7343 15.3263 20.5303 15.5303L20.5303 15.5303C20.3862 15.6744 20.1978 15.75 20.0049 15.75C19.9235 15.75 19.8407 15.7366 19.7593 15.7086L19.7593 15.7086L16.9622 14.7475L16.8636 14.7136L16.7701 14.7598C15.8701 15.2051 14.8663 15.4408 13.8565 15.4423H13.8565H13.8565H13.8565H13.8564H13.8564H13.8564H13.8564H13.8564H13.8563H13.8563H13.8563H13.8563H13.8563H13.8562H13.8562H13.8562H13.8562H13.8562H13.8561H13.8561H13.8561H13.8561H13.856H13.856H13.856H13.856H13.856H13.8559H13.8559H13.8559H13.8559H13.8559H13.8558H13.8558H13.8558H13.8558H13.8558H13.8557H13.8557H13.8557H13.8557H13.8557H13.8556H13.8556H13.8556H13.8556H13.8555H13.8555H13.8555H13.8555H13.8555H13.8554H13.8554H13.8554H13.8554H13.8554H13.8553H13.8553H13.8553H13.8553H13.8553H13.8552H13.8552H13.8552H13.8552H13.8551H13.8551H13.8551H13.8551H13.8551H13.855H13.855H13.855H13.855H13.855H13.8549H13.8549H13.8549H13.8549H13.8549H13.8548H13.8548H13.8548H13.8548H13.8547H13.8547H13.8547H13.8547H13.8547H13.8546H13.8546H13.8546H13.8546H13.8546H13.8545H13.8545H13.8545H13.8545H13.8545H13.8544H13.8544H13.8544H13.8544H13.8543H13.8543H13.8543H13.8543H13.8543H13.8542H13.8542H13.8542H13.8542H13.8542H13.8541H13.8541H13.8541H13.8541H13.8541H13.854H13.854H13.854H13.854H13.8539H13.8539H13.8539H13.8539H13.8539H13.8538H13.8538H13.8538H13.8538H13.8538H13.8537H13.8537H13.8537H13.8537H13.8536H13.8536H13.8536H13.8536H13.8536H13.8535H13.8535H13.8535H13.8535H13.8535H13.8534H13.8534H13.8534H13.8534H13.8534H13.8533H13.8533H13.8533H13.8533H13.8532H13.8532H13.8532H13.8532H13.8532H13.8531H13.8531H13.8531H13.8531H13.8531H13.853H13.853H13.853H13.853H13.8529H13.8529H13.8529H13.8529H13.8529H13.8528H13.8528H13.8528H13.8528H13.8528H13.8527H13.8527H13.8527H13.8527H13.8527H13.8526H13.8526H13.8526H13.8526H13.8525H13.8525H13.8525H13.8525H13.8525H13.8524H13.8524H13.8524H13.8524H13.8524H13.8523H13.8523H13.8523H13.8523H13.8522H13.8522H13.8522H13.8522H13.8522H13.8521H13.8521H13.8521H13.8521H13.8521H13.852H13.852H13.852H13.852H13.8519H13.8519H13.8519H13.8519H13.8519H13.8518H13.8518H13.8518H13.8518H13.8518H13.8517H13.8517H13.8517H13.8517H13.8517H13.8516H13.8516H13.8516H13.8516H13.8515H13.8515H13.8515H13.8515H13.8515H13.8514H13.8514H13.8514H13.8514H13.8514H13.8513H13.8513H13.8513H13.8513H13.8512H13.8512H13.8512H13.8512H13.8512H13.8511H13.8511H13.8511H13.8511H13.8511H13.851H13.851H13.851H13.851H13.851H13.8509H13.8509H13.8509H13.8509H13.8508H13.8508H13.8508H13.8508H13.8508H13.8507H13.8507H13.8507H13.8507H13.8507H13.8506H13.8506H13.8506H13.8506H13.8505H13.8505H13.8505H13.8505H13.8505H13.8504H13.8504H13.8504H13.8504H13.8504H13.8503H13.8503H13.8503H13.8503H13.8502H13.8502H13.8502H13.8502H13.8502H13.8501H13.8501H13.8501H13.8501H13.8501H13.85H13.85H13.85H13.85H13.85H13.8499H13.8499H13.8499H13.8499H13.8498H13.8498H13.8498H13.8498H13.8498H13.8497H13.8497H13.8497H13.8497H13.8497H13.8496H13.8496H13.8496H13.8496H13.8496H13.8495H13.8495H13.8495H13.8495H13.8494H13.8494H13.8494H13.8494H13.8494H13.8493H13.8493H13.8493H13.8493H13.8493H13.8492H13.8492H13.8492H13.8492H13.8491H13.8491H13.8491H13.8491H13.8491H13.849H13.849H13.849H13.849H13.849H13.8489H13.8489H13.8489H13.8489H13.8489H13.8488H13.8488H13.8488H13.8488H13.8487H13.8487H13.8487H13.8487H13.8487H13.8486H13.8486H13.8486H13.8486H13.8486H13.8485H13.8485H13.8485H13.8485H13.8485H13.8484H13.8484H13.8484H13.8484H13.8483H13.8483H13.8483H13.8483H13.8483H13.8482H13.8482H13.8482H13.8482H13.8482H13.8481H13.8481H13.8481H13.8481H13.8481H13.848H13.848H13.848H13.848H13.848H13.8479H13.8479H13.8479H13.8479H13.8478H13.8478H13.8478H13.8478H13.8478H13.8477H13.8477H13.8477H13.8477H13.8477H13.8476H13.8476H13.8476H13.8476H13.8476H13.8475H13.8475H13.8475H13.8475H13.8474H13.8474H13.8474H13.8474H13.8474H13.8473H13.8473H13.8473H13.8473H13.8473H13.8472H13.8472H13.8472H13.8472H13.8472H13.8471H13.8471H13.8471H13.8471H13.8471H13.847H13.847H13.847H13.847H13.847H13.8469H13.8469H13.8469H13.8469H13.8468H13.8468H13.8468H13.8468H13.8468H13.8467H13.8467H13.8467H13.8467H13.8467H13.8466H13.8466H13.8466H13.8466H13.8466H13.8465H13.8465H13.8465H13.8465H13.8465H13.8464H13.8464H13.8464H13.8464H13.8464H13.8463H13.8463H13.8463H13.8463H13.8462H13.8462H13.8462H13.8462H13.8462H13.8461H13.8461C12.1112 15.4423 10.4719 14.7703 9.22707 13.5476C7.97967 12.3224 7.27839 10.6913 7.25086 8.95312L7.25086 8.95312C7.23641 8.0421 7.40407 7.15828 7.74906 6.32498L7.74906 6.32497C8.08185 5.52101 8.56374 4.80024 9.18202 4.18199L9.18202 4.18198C9.80027 3.56371 10.521 3.08182 11.325 2.74903L11.2294 2.51804L11.325 2.74903C12.1583 2.40408 13.0417 2.23625 13.9531 2.25088L13.9531 2.25088C15.6914 2.27846 17.3225 2.97972 18.5477 4.22715C19.7727 5.47438 20.445 7.11789 20.4423 8.85661C20.4407 9.86639 20.2051 10.8702 19.7598 11.7701ZM14.4438 10.8985V9.77344C15.397 9.48707 16.0936 8.60186 16.0936 7.55593C16.0936 6.27929 15.0554 5.24107 13.7788 5.24107C12.5021 5.24107 11.4639 6.27932 11.4639 7.55593C11.4639 7.9232 11.7616 8.22096 12.1289 8.22096C12.4962 8.22096 12.7939 7.9232 12.7939 7.55593C12.7939 7.01314 13.236 6.57112 13.7788 6.57112C14.3215 6.57112 14.7636 7.01314 14.7636 7.55593C14.7636 8.09872 14.3215 8.54075 13.7788 8.54075C13.4115 8.54075 13.1137 8.83851 13.1137 9.20577V10.8985C13.1137 11.2658 13.4115 11.5635 13.7788 11.5635C14.146 11.5635 14.4438 11.2658 14.4438 10.8985Z" fill="#FFD05E" stroke="white" stroke-width="0.5"/>
</g>
<defs>
<clipPath id="clip0_3787_6996">
<rect width="14" height="14" fill="white" transform="translate(7 2)"/>
</clipPath>
</defs>
</svg>
