<svg width="26" height="20" viewBox="0 0 26 20" fill="none" xmlns="http://www.w3.org/2000/svg">
<rect width="20" height="20" rx="4" fill="#40A574"/>
<path d="M17.7564 2.5299L17.7566 2.52999L22.5565 5.88829C22.5565 5.8883 22.5565 5.88832 22.5566 5.88833C22.9745 6.18089 23.3608 6.65268 23.6428 7.19293C23.9249 7.73321 24.0915 8.32062 24.0915 8.83349V14.4835C24.0915 16.4704 22.4785 18.0835 20.4915 18.0835H11.5082C9.52198 18.0835 7.9082 16.4628 7.9082 14.4752V8.72515C7.9082 8.24793 8.05923 7.69006 8.31582 7.16892C8.57235 6.64791 8.92374 6.18526 9.30363 5.88894L9.30368 5.8889L13.478 2.6311C13.4781 2.63101 13.4782 2.63092 13.4784 2.63082C14.6501 1.7232 16.538 1.6762 17.7564 2.5299ZM15.9999 15.8752C16.4796 15.8752 16.8749 15.4799 16.8749 15.0002V12.5002C16.8749 12.0204 16.4796 11.6252 15.9999 11.6252C15.5201 11.6252 15.1249 12.0204 15.1249 12.5002V15.0002C15.1249 15.4799 15.5201 15.8752 15.9999 15.8752Z" fill="#FF834B" stroke="white" stroke-width="0.5"/>
</svg>
