<svg width="21" height="20" viewBox="0 0 21 20" fill="none" xmlns="http://www.w3.org/2000/svg">
<rect width="20" height="20" rx="4" fill="#40A574"/>
<g clip-path="url(#clip0_3784_6919)">
<path d="M9.64416 16.1748L9.89911 16.1749L9.8992 15.9199L9.89953 14.9238L9.89962 14.6688L9.64457 14.6687L7.67729 14.6684L7.42225 14.6684V14.9234V15.9195V16.1745L7.6772 16.1745L9.64416 16.1748ZM12.4993 15.529C13.9537 15.529 15.1867 14.3628 15.3219 12.9285C18.2711 13.0623 20.5936 15.1686 20.7379 17.745L12.499 17.744L4.26201 17.743C4.41323 14.9977 6.98824 13.0625 9.67751 12.9284C9.8132 14.363 11.0453 15.529 12.4993 15.529Z" fill="#FFD05E" stroke="white" stroke-width="0.51"/>
<path d="M17.5412 9.22342V9.22326L17.5462 5.16932C17.5462 5.16927 17.5462 5.16921 17.5462 5.16916C17.5462 5.04711 17.4897 4.93844 17.401 4.86755L17.3682 4.84135L17.3578 4.80068C16.7905 2.56878 14.8153 1.126 12.5002 1.125L17.5412 9.22342ZM17.5412 9.22342C17.5412 9.77311 17.4719 10.1337 17.328 10.4104L17.5412 9.22342ZM16.3115 4.78299H16.3932H16.5756L16.5098 4.6129C15.8755 2.97287 14.2554 1.87178 12.5002 1.87109H12.5002C10.7455 1.87109 9.1235 2.97277 8.48953 4.6119L8.42374 4.78199H8.60611H8.68499C8.67366 4.88926 8.66805 4.99693 8.66805 5.10487C8.66805 5.10488 8.66805 5.10489 8.66805 5.1049L8.66741 7.92498L7.83916 7.92469H7.83912C7.62599 7.92469 7.45313 7.75195 7.45312 7.53838C7.45312 7.53837 7.45312 7.53836 7.45312 7.53836L7.45346 5.16801V5.16799C7.45346 5.04623 7.50994 4.93741 7.59853 4.86644L7.63119 4.84027L7.64151 4.79972C8.20952 2.5678 10.185 1.12535 12.5001 1.125L16.3115 4.78299ZM16.3115 4.78299C16.3227 4.89001 16.3283 4.99753 16.3283 5.10521C16.3283 5.10522 16.3283 5.10522 16.3283 5.10523L16.329 7.92568H16.6705H16.7955L16.7955 8.05072L16.7952 9.22342C16.7952 9.22343 16.7952 9.22344 16.7952 9.22345C16.7952 9.46179 16.781 9.64566 16.7548 9.78759C16.7288 9.9287 16.6895 10.0361 16.6337 10.1151C16.5489 10.2351 16.4399 10.2704 16.3462 10.2808V11.0275C16.9128 10.9901 17.1895 10.6758 17.3279 10.4105L16.3115 4.78299Z" fill="#FFD05E" stroke="white" stroke-width="0.25"/>
<path d="M14.0833 11.6089L14.0829 12.6677C14.0838 13.4671 13.4484 14.1864 12.6519 14.2711C11.7345 14.361 10.916 13.5785 10.916 12.6671L10.9163 11.6092C11.1654 11.6876 11.4476 11.756 11.7929 11.7566H13.2057C13.551 11.756 13.8336 11.6872 14.0833 11.6089Z" fill="#FFD05E"/>
<path d="M14.978 5.13458L14.978 5.13709L14.9787 8.76216C14.9787 8.76217 14.9787 8.76219 14.9787 8.7622C14.9787 9.7124 14.1807 10.5009 13.228 10.5103H11.7917C10.839 10.5009 10.041 9.7124 10.041 8.7622C10.041 8.76219 10.041 8.76217 10.041 8.76216L10.0417 5.13709L10.0417 5.13709L10.0417 5.13458C10.0403 4.99322 10.0558 4.85208 10.0871 4.7139C11.4986 5.67649 13.5211 5.67649 14.9326 4.7139C14.9639 4.85208 14.9794 4.99322 14.978 5.13458Z" fill="#FFD05E" stroke="white" stroke-width="0.5"/>
<path d="M11.8511 3.60767H13.1665C12.7383 3.71255 12.2793 3.71255 11.8511 3.60767Z" fill="#FFD05E" stroke="white"/>
</g>
<defs>
<clipPath id="clip0_3784_6919">
<rect width="17" height="17" fill="white" transform="translate(4 1)"/>
</clipPath>
</defs>
</svg>
