<svg width="24" height="20" viewBox="0 0 24 20" fill="none" xmlns="http://www.w3.org/2000/svg">
<rect width="20" height="20" rx="4" fill="#88C1FD"/>
<path d="M20.4163 10.0001V15.0001C20.4163 16.7037 19.0366 18.0834 17.333 18.0834H10.6663C8.96275 18.0834 7.58301 16.7037 7.58301 15.0001V10.0001C7.58301 9.67982 7.84608 9.41675 8.16634 9.41675H9.80801C10.1283 9.41675 10.3913 9.67982 10.3913 10.0001V12.6167C10.3913 13.3257 10.7837 13.9762 11.405 14.3113C11.6844 14.4651 11.9924 14.5417 12.308 14.5417C12.6725 14.5417 13.0373 14.4363 13.354 14.2254L14.0061 13.7998L14.6019 14.1992C14.602 14.1993 14.602 14.1993 14.6021 14.1994C15.1847 14.5908 15.9334 14.6405 16.5592 14.3039C17.1893 13.9695 17.583 13.3271 17.583 12.6084V10.0001C17.583 9.67982 17.8461 9.41675 18.1663 9.41675H19.833C20.1533 9.41675 20.4163 9.67982 20.4163 10.0001Z" fill="#FF834B" stroke="white" stroke-width="0.5"/>
<path d="M21.6663 5.83341V6.66675C21.6663 7.08921 21.5642 7.43854 21.354 7.67948C21.1492 7.91422 20.8091 8.08341 20.2497 8.08341H7.74967C7.1623 8.08341 6.82514 7.91256 6.62854 7.68173C6.4254 7.44323 6.33301 7.09532 6.33301 6.66675V5.83341C6.33301 5.40484 6.4254 5.05693 6.62854 4.81843C6.82514 4.5876 7.1623 4.41675 7.74967 4.41675H20.2497C20.8091 4.41675 21.1492 4.58595 21.354 4.82068C21.5642 5.06162 21.6663 5.41095 21.6663 5.83341Z" fill="#FF834B" stroke="white" stroke-width="0.5"/>
<path d="M11.2565 2.07673L13.0964 3.91662H9.2227C9.09561 3.71136 9.12131 3.44051 9.30176 3.26006L10.4851 2.07673C10.6958 1.86603 11.0458 1.86603 11.2565 2.07673Z" fill="#FF834B" stroke="white" stroke-width="0.5"/>
<path d="M18.6902 3.26006C18.8707 3.44051 18.8964 3.71136 18.7693 3.91662H14.8955L16.7354 2.07673C16.9461 1.86603 17.2962 1.86603 17.5069 2.07673L18.6902 3.26006Z" fill="#FF834B" stroke="white" stroke-width="0.5"/>
<path d="M15.3244 13.0935L15.3222 13.0921L14.5722 12.5921C14.212 12.3519 13.7458 12.3542 13.381 12.5902L13.381 12.5902L13.3792 12.5914L12.5959 13.1081L12.5959 13.1081L12.5949 13.1087C12.2138 13.3628 11.7002 13.0871 11.7002 12.6251V10.0001C11.7002 9.67982 11.9633 9.41675 12.2835 9.41675H15.6419C15.9621 9.41675 16.2252 9.67982 16.2252 10.0001V12.6084C16.2252 13.0789 15.7046 13.3528 15.3244 13.0935Z" fill="#FF834B" stroke="white" stroke-width="0.5"/>
</svg>
