<svg width="22" height="20" viewBox="0 0 22 20" fill="none" xmlns="http://www.w3.org/2000/svg">
<rect width="20" height="20" rx="4" fill="#FD9399"/>
<g clip-path="url(#clip0_3787_7018)">
<path d="M21.1097 4.67973H19.291V2.86091L21.1097 4.67973Z" fill="#FFD05E" stroke="white" stroke-width="0.5"/>
<path d="M17.9121 5.36914C17.9121 5.74991 18.2208 6.05859 18.6016 6.05859H21.7207V15.6816C21.7207 16.2705 21.2412 16.75 20.6523 16.75H14.462C15.2914 15.971 15.8603 14.917 16.0214 13.7344H19.4805C19.8612 13.7344 20.1699 13.4257 20.1699 13.0449C20.1699 12.6642 19.8612 12.3555 19.4805 12.3555H16.0214C15.9616 11.9161 15.8456 11.4943 15.6806 11.0977H19.4805C19.8612 11.0977 20.1699 10.789 20.1699 10.4082C20.1699 10.0274 19.8612 9.71875 19.4805 9.71875H14.8264C14.3725 9.19517 13.8134 8.76478 13.1822 8.46094H19.4805C19.8612 8.46094 20.1699 8.15225 20.1699 7.77148C20.1699 7.39072 19.8612 7.08203 19.4805 7.08203H13.0352C12.6544 7.08203 12.3457 7.39072 12.3457 7.77148C12.3457 7.92748 12.3975 8.07137 12.4849 8.1869C12.0104 8.04006 11.5065 7.96094 10.9844 7.96094C10.9209 7.96094 10.8577 7.96217 10.7949 7.96455V3.31836C10.7949 2.72949 11.2744 2.25 11.8633 2.25H17.9121V5.36914Z" fill="#FFD05E" stroke="white" stroke-width="0.5"/>
<path d="M7.2793 13.0449C7.2793 11.0022 8.94162 9.33984 10.9844 9.33984C13.0271 9.33984 14.6895 11.0022 14.6895 13.0449C14.6895 15.0877 13.0271 16.75 10.9844 16.75C8.94162 16.75 7.2793 15.0877 7.2793 13.0449ZM10.9844 13.7344H12.1562C12.537 13.7344 12.8457 13.4257 12.8457 13.0449C12.8457 12.6642 12.537 12.3555 12.1562 12.3555H11.6738V11.2871C11.6738 10.9063 11.3651 10.5977 10.9844 10.5977C10.6036 10.5977 10.2949 10.9063 10.2949 11.2871V13.0449C10.2949 13.4257 10.6036 13.7344 10.9844 13.7344Z" fill="#FFD05E" stroke="white" stroke-width="0.5"/>
</g>
<defs>
<clipPath id="clip0_3787_7018">
<rect width="15" height="15" fill="white" transform="translate(7 2)"/>
</clipPath>
</defs>
</svg>
