<svg width="22" height="20" viewBox="0 0 22 20" fill="none" xmlns="http://www.w3.org/2000/svg">
<rect width="20" height="20" rx="4" fill="#FF834B"/>
<g clip-path="url(#clip0_3903_7362)">
<path d="M19.0684 16.6072L5.41394 15.0938C4.75744 15.0211 4.28425 14.4299 4.35699 13.7734L5.61201 2.44959C5.68479 1.79309 6.27597 1.31986 6.93244 1.39264L20.5869 2.90598C21.2434 2.97876 21.7167 3.56993 21.6439 4.22641L20.3888 15.5502C20.3161 16.2067 19.7249 16.6799 19.0684 16.6072Z" fill="#FF834B"/>
<path d="M21.6435 4.22668L21.1487 8.69259L20.0488 2.84668L20.5867 2.90626C21.243 2.97889 21.7162 3.57 21.6435 4.22668Z" fill="#FD9399"/>
<path d="M21.0249 14.5036L7.52367 17.0435C6.87454 17.1656 6.2493 16.7384 6.12719 16.0893L4.02083 4.89252C3.89872 4.2434 4.32595 3.61816 4.97508 3.49604L18.4764 0.956136C19.1255 0.834018 19.7507 1.26125 19.8728 1.91038L21.9792 13.1071C22.1013 13.7563 21.6741 14.3815 21.0249 14.5036Z" fill="url(#paint0_linear_3903_7362)"/>
<path d="M20.1611 3.44263V14.6661L21.025 14.5036C21.6741 14.3815 22.1014 13.7562 21.9792 13.1071L20.1611 3.44263Z" fill="#40A574"/>
<path d="M6.0625 15.7478L6.12677 16.0894C6.24889 16.7386 6.87412 17.1658 7.52325 17.0437L14.4118 15.7478H6.0625Z" fill="#FD9399"/>
<path d="M18.9653 15.8176H5.22723C4.5667 15.8176 4.03125 15.2821 4.03125 14.6216V3.22845C4.03125 2.56792 4.5667 2.03247 5.22723 2.03247H18.9653C19.6258 2.03247 20.1613 2.56792 20.1613 3.22845V14.6216C20.1613 15.2821 19.6258 15.8176 18.9653 15.8176Z" fill="url(#paint1_linear_3903_7362)"/>
<path d="M17.8449 14.6938H6.34668C5.79387 14.6938 5.3457 14.2456 5.3457 13.6928V4.15723C5.3457 3.60441 5.79387 3.15625 6.34668 3.15625H17.8449C18.3977 3.15625 18.8458 3.60441 18.8458 4.15723V13.6928C18.8458 14.2456 18.3977 14.6938 17.8449 14.6938Z" fill="#88C1FD"/>
<path d="M12.8964 14.6939H6.347C5.79408 14.6939 5.3457 14.2459 5.3457 13.693V12.1298L7.00742 10.11C7.55582 9.44283 8.5766 9.44283 9.12539 10.11L10.16 11.3679L12.8964 14.6939Z" fill="#FD9399"/>
<path d="M18.8454 11.1794V13.6929C18.8454 14.2458 18.397 14.6938 17.8441 14.6938H7.42285L10.1593 11.3678L13.5209 7.28133C14.0693 6.61456 15.0905 6.61456 15.6389 7.28133L18.8454 11.1794Z" fill="#40A574"/>
<path d="M8.84332 6.99304C9.62729 6.99304 10.2628 6.35751 10.2628 5.57355C10.2628 4.78958 9.62729 4.15405 8.84332 4.15405C8.05936 4.15405 7.42383 4.78958 7.42383 5.57355C7.42383 6.35751 8.05936 6.99304 8.84332 6.99304Z" fill="#FFD05E"/>
</g>
<defs>
<linearGradient id="paint0_linear_3903_7362" x1="7.18476" y1="5.02653" x2="20.5976" y2="14.1904" gradientUnits="userSpaceOnUse">
<stop stop-color="#CDEC7A"/>
<stop offset="0.2157" stop-color="#B0E995"/>
<stop offset="0.5613" stop-color="#87E4BB"/>
<stop offset="0.8347" stop-color="#6EE1D2"/>
<stop offset="1" stop-color="#65E0DB"/>
</linearGradient>
<linearGradient id="paint1_linear_3903_7362" x1="7.11543" y1="3.94418" x2="18.599" y2="15.4278" gradientUnits="userSpaceOnUse">
<stop stop-color="#F8F6FB"/>
<stop offset="1" stop-color="#EFDCFB"/>
</linearGradient>
<clipPath id="clip0_3903_7362">
<rect width="18" height="18" fill="white" transform="translate(4)"/>
</clipPath>
</defs>
</svg>
