<svg width="21" height="20" viewBox="0 0 21 20" fill="none" xmlns="http://www.w3.org/2000/svg">
<rect width="20" height="20" rx="4" fill="#88C1FD"/>
<path d="M17.2627 1.39416L17.2628 1.39419C17.8218 2.6065 19.0443 3.38951 20.3785 3.38951C20.5155 3.38951 20.6265 3.50055 20.6265 3.63753V3.63756V7.79758C20.6265 9.55755 20.1651 11.2959 19.2922 12.8242C18.4194 14.3525 17.1566 15.6331 15.6407 16.5273L13.6263 17.7156L13.7533 17.9309L13.6263 17.7156C13.5874 17.7385 13.5439 17.75 13.5003 17.75C13.4566 17.75 13.4131 17.7385 13.3742 17.7156L13.2472 17.9309L13.3742 17.7156L11.3598 16.5273C9.84389 15.6331 8.58114 14.3525 7.70829 12.8242C6.83546 11.2959 6.37402 9.55755 6.37402 7.79758V3.63756C6.37402 3.50057 6.48509 3.38951 6.62207 3.38951C7.9563 3.38951 9.17876 2.6065 9.7378 1.39419C9.77833 1.30629 9.86628 1.25 9.96307 1.25H17.0375C17.1343 1.25 17.2222 1.3063 17.2627 1.39416ZM18.2293 8.8359C18.2293 6.22641 16.1083 4.10348 13.5003 4.10348C10.8923 4.10348 8.77129 6.22641 8.77129 8.8359C8.77129 11.4454 10.8923 13.5683 13.5003 13.5683C16.1083 13.5683 18.2293 11.4454 18.2293 8.8359Z" fill="#FD9399" stroke="white" stroke-width="0.5"/>
<path d="M10.2676 8.83595V8.83594C10.2676 7.05142 11.7183 5.59961 13.5005 5.59961C15.2827 5.59961 16.7334 7.05142 16.7334 8.83594C16.7334 9.66048 16.4238 10.414 15.9142 10.9864C15.7349 10.6846 15.5011 10.4205 15.2271 10.2066C15.4661 9.86501 15.6068 9.44916 15.6068 9.00106C15.6068 7.83891 14.6623 6.89357 13.5005 6.89357C12.3387 6.89357 11.3941 7.83888 11.3941 9.00106C11.3941 9.44952 11.5351 9.8657 11.7744 10.2075C11.5005 10.4213 11.2666 10.6853 11.0871 10.9869C10.5772 10.4144 10.2675 9.66072 10.2676 8.83595Z" fill="#FD9399" stroke="white" stroke-width="0.5"/>
<path d="M14.6805 11.8487C14.3149 11.9929 13.9169 12.0721 13.5003 12.0721C13.0838 12.0721 12.6859 11.9929 12.3203 11.8489C12.534 11.4074 12.9864 11.1084 13.5003 11.1084C14.0156 11.1084 14.4673 11.4071 14.6805 11.8487Z" fill="#FD9399" stroke="white" stroke-width="0.5"/>
<path d="M14.1102 9.00104C14.1102 9.33901 13.8366 9.61243 13.4999 9.61243C13.1632 9.61243 12.8896 9.33901 12.8896 9.00104C12.8896 8.66307 13.1632 8.38965 13.4999 8.38965C13.8366 8.38965 14.1102 8.66307 14.1102 9.00104Z" fill="#FD9399" stroke="white" stroke-width="0.5"/>
</svg>
