<svg width="24" height="21" viewBox="0 0 24 21" fill="none" xmlns="http://www.w3.org/2000/svg">
<rect y="1" width="20" height="20" rx="4" fill="#FF834B"/>
<path d="M19.0726 7.92911L19.1839 7.7808L19.0743 7.63128C18.8425 7.31511 18.7031 6.93187 18.7031 6.5155C18.7031 5.46888 19.5549 4.61707 20.6016 4.61707C21.6482 4.61707 22.5 5.46888 22.5 6.5155C22.5 7.44702 21.823 8.2215 20.9338 8.37978L20.7515 8.41223L20.7294 8.59612L20.0012 14.665L20.0012 14.6652C19.9786 14.8537 19.819 14.9954 19.629 14.9954H8.37103C8.18103 14.9954 8.02135 14.8537 7.99885 14.6652L7.99883 14.665L7.27057 8.59612L7.2485 8.41223L7.06616 8.37978C6.17697 8.2215 5.5 7.44702 5.5 6.5155C5.5 5.46888 6.35182 4.61707 7.39844 4.61707C8.44506 4.61707 9.29688 5.46888 9.29688 6.5155C9.29688 6.93187 9.15748 7.31511 8.92571 7.63128L8.8161 7.7808L8.92735 7.92911L10.3961 9.88696L10.6373 10.2085L10.8191 9.84995L12.7385 6.06261L12.8222 5.89748L12.6886 5.76926C12.3273 5.42229 12.1016 4.9391 12.1016 4.40308C12.1016 3.35645 12.9534 2.50464 14 2.50464C15.0466 2.50464 15.8984 3.35645 15.8984 4.40308C15.8984 4.9391 15.6727 5.42229 15.3114 5.76926L15.1778 5.89748L15.2615 6.06261L17.1809 9.84995L17.3627 10.2085L17.6039 9.88696L19.0726 7.92911Z" fill="#FD9399" stroke="white" stroke-width="0.5"/>
<path d="M20.129 17.1204C20.129 17.3967 19.9052 17.6204 19.629 17.6204H8.37109C8.09494 17.6204 7.87109 17.3967 7.87109 17.1204C7.87109 16.844 8.09494 16.6204 8.37109 16.6204H19.629C19.9052 16.6204 20.129 16.844 20.129 17.1204Z" fill="#FD9399" stroke="white" stroke-width="0.25"/>
</svg>
