<svg width="21" height="20" viewBox="0 0 21 20" fill="none" xmlns="http://www.w3.org/2000/svg">
<rect width="20" height="20" rx="4" fill="#40A574"/>
<g clip-path="url(#clip0_3787_7003)">
<path d="M12.5363 3.88617L12.5363 3.88616L12.5355 3.88578C12.3322 3.78331 12.102 3.79132 11.9141 3.88664L11.9139 3.88673L11.2598 4.21916V2.25H13.1914V4.21915L12.5363 3.88617Z" fill="#FF834B" stroke="white" stroke-width="0.5"/>
<path d="M14.5703 2.25V5.34167C14.5703 5.83286 14.0435 6.21643 13.5369 5.93893L12.2256 5.2726L10.881 5.95593L10.8807 5.95609C10.4194 6.1897 9.88159 5.84874 9.88189 5.34158V5.34175L14.5703 2.25ZM14.5703 2.25H18.0117C18.1164 2.25 18.2012 2.3348 18.2012 2.43945V6.95092C15.3682 6.00454 12.2523 7.40573 11.0939 10.2027C10.5642 11.4813 10.516 12.8966 10.951 14.2012H6.43945C6.3348 14.2012 6.25 14.1164 6.25 14.0117V2.43945C6.25 2.3348 6.3348 2.25 6.43945 2.25H9.88094M14.5703 2.25H9.88094M9.88094 2.25L9.88189 5.3415L10.1309 2.25H9.88094Z" fill="#FF834B" stroke="white" stroke-width="0.5"/>
<path d="M17.4475 12.203L17.4474 12.2029C17.3433 12.0988 17.201 12.0352 17.0448 12.0352H16.3815C16.5185 12.2944 16.4784 12.6229 16.2608 12.8417M17.4475 12.203L14.2775 11.8363L14.2774 11.8362L14.454 11.6593L14.2777 11.8366L15.2872 12.8441L15.2875 12.8444C15.5569 13.1124 15.9927 13.1113 16.2608 12.8417M17.4475 12.203C17.5607 12.3161 17.6152 12.4499 17.6152 12.6347C17.6152 12.9479 17.3581 13.2051 17.0448 13.2051H14.9941C14.6133 13.2051 14.3047 13.5137 14.3047 13.8945C14.3047 14.2753 14.6133 14.584 14.9941 14.584H17.0448C17.5823 14.584 18.07 14.3647 18.4224 14.0124C18.7939 13.6408 18.9941 13.1579 18.9941 12.6056C18.9941 11.5309 18.1195 10.6562 17.0448 10.6562H16.3817C16.5168 10.3963 16.4748 10.0684 16.2561 9.8509L16.2561 9.85084C15.9866 9.58297 15.5511 9.58413 15.2831 9.85336C15.283 9.85343 15.283 9.85349 15.2829 9.85356L17.4475 12.203ZM16.2608 12.8417L16.0835 12.6654L16.2608 12.8417C16.2608 12.8417 16.2608 12.8417 16.2608 12.8417ZM16.3931 8.03613C17.5962 8.03613 18.6851 8.52354 19.4739 9.31228C20.2626 10.101 20.75 11.1899 20.75 12.3931C20.75 13.5962 20.2626 14.6851 19.4739 15.4739C18.6851 16.2626 17.5962 16.75 16.3931 16.75C15.1899 16.75 14.101 16.2626 13.3123 15.4739C12.5235 14.6851 12.0361 13.5962 12.0361 12.3931C12.0361 11.1899 12.5235 10.101 13.3123 9.31228C14.101 8.52354 15.1899 8.03613 16.3931 8.03613Z" fill="#FF834B" stroke="white" stroke-width="0.5"/>
</g>
<defs>
<clipPath id="clip0_3787_7003">
<rect width="15" height="15" fill="white" transform="translate(6 2)"/>
</clipPath>
</defs>
</svg>
