<svg width="22" height="21" viewBox="0 0 22 21" fill="none" xmlns="http://www.w3.org/2000/svg">
<rect y="1" width="20" height="20" rx="4" fill="#FFD05E"/>
<path d="M6.00554 8.24777L6.00555 8.24776L6.00458 8.24651C5.57355 7.69234 5.37182 6.97665 5.4411 6.23384C5.44112 6.23364 5.44113 6.23345 5.44115 6.23326L5.64302 4.17721C5.80086 3.06242 6.12258 2.32942 6.63028 1.87007C7.1366 1.41197 7.87086 1.1875 8.94224 1.1875H10.7422H11.8522H14.1322H15.2422H17.0122C18.0797 1.1875 18.8144 1.41191 19.321 1.86771C19.8286 2.32452 20.1501 3.05216 20.304 4.15527L20.5209 6.22643C20.5209 6.22675 20.5209 6.22708 20.521 6.2274C20.5901 6.94885 20.4024 7.64311 19.9922 8.19L19.9922 8.18997L19.9895 8.19377C19.4768 8.90473 18.6543 9.3125 17.7322 9.3125C16.8836 9.3125 16.0624 8.89403 15.5296 8.20901L15.3202 7.93978L15.1265 8.22052C14.6567 8.90141 13.8869 9.3125 12.9997 9.3125C12.1145 9.3125 11.3226 8.88061 10.8596 8.19288L10.6636 7.90167L10.4525 8.18218C9.9275 8.87985 9.09259 9.3125 8.22974 9.3125C7.32835 9.3125 6.52579 8.92546 6.00554 8.24777Z" fill="#FF834B" stroke="white" stroke-width="0.5"/>
<path d="M12.5388 12.7436L12.5393 12.7436C13.368 12.6571 13.9527 12.7982 14.3261 13.0992C14.6934 13.3954 14.9068 13.8879 14.9033 14.6237V14.6249V16.4174C14.9033 16.4819 14.8502 16.5349 14.7858 16.5349H11.2083C11.1439 16.5349 11.0908 16.4819 11.0908 16.4174V14.3624C11.0908 13.5283 11.7161 12.8278 12.5388 12.7436Z" fill="#FF834B" stroke="white" stroke-width="0.5"/>
<path d="M6.89426 10.3457L6.89425 10.3458L6.8986 10.3472C7.11071 10.4179 7.32718 10.4745 7.55438 10.5071C7.63847 10.5211 7.74692 10.5383 7.85387 10.5399C7.97918 10.555 8.10462 10.5626 8.23016 10.5626C9.0925 10.5626 9.93712 10.2669 10.6269 9.75478C11.2927 10.2681 12.1259 10.5626 13.0002 10.5626C13.8799 10.5626 14.7014 10.2818 15.3668 9.76899C16.054 10.2734 16.8842 10.5626 17.7327 10.5626C17.8751 10.5626 18.0184 10.5547 18.1551 10.5388C18.2414 10.5316 18.3314 10.5236 18.4235 10.5072C18.6762 10.4739 18.9026 10.4011 19.1061 10.3356L19.1142 10.3331L19.1142 10.3331L19.1178 10.3319C19.4445 10.2213 19.7777 10.4626 19.7777 10.8001V13.0351C19.7777 14.967 18.2096 16.5351 16.2777 16.5351C16.2132 16.5351 16.1602 16.482 16.1602 16.4176V14.6251C16.1602 13.6135 15.8504 12.7883 15.2152 12.2195C14.6551 11.71 13.9068 11.4726 13.0152 11.4726C12.821 11.4726 12.6245 11.4803 12.4113 11.504C10.9481 11.6525 9.84016 12.8857 9.84016 14.3626V16.4176C9.84016 16.482 9.78708 16.5351 9.72266 16.5351C7.79073 16.5351 6.22266 14.967 6.22266 13.0351V10.8151C6.22266 10.4674 6.56494 10.2292 6.89426 10.3457Z" fill="#FF834B" stroke="white" stroke-width="0.5"/>
</svg>
