<svg width="22" height="20" viewBox="0 0 22 20" fill="none" xmlns="http://www.w3.org/2000/svg">
<rect width="20" height="20" rx="4" fill="#88C1FD"/>
<path d="M17.0479 15.8523H19.5106L17.0479 18.315V15.8523Z" fill="#FFD05E" stroke="white" stroke-width="0.5"/>
<path d="M15.8018 14.3561H15.5518V14.6061V18.75H7.05371V2.25H19.9456V14.3561H15.8018ZM11.3747 4.79363H11.1247V5.04363V6.03972V6.28972H11.3747H15.6247H15.8747V6.03972V5.04363V4.79363H15.6247H11.3747ZM9.42672 7.27278H9.17672V7.52278V8.51887V8.76887H9.42672H17.5725H17.8225V8.51887V7.52278V7.27278H17.5725H9.42672ZM9.42672 9.39778H9.17672V9.64778V10.6439V10.8939H9.42672H17.5725H17.8225V10.6439V9.64778V9.39778H17.5725H9.42672ZM10.4726 15.8522H10.7226V15.6022V14.6061V14.3561H10.4726H9.42676H9.17676V14.6061V15.6022V15.8522H9.42676H10.4726ZM13.4997 15.8522H13.7497V15.6022V14.6061V14.3561H13.4997H11.4687H11.2187V14.6061V15.6022V15.8522H11.4687H13.4997ZM9.17672 12.7689V13.0189H9.42672H17.5725H17.8225V12.7689V11.7728V11.5228H17.5725H9.42672H9.17672V11.7728V12.7689Z" fill="#FFD05E" stroke="white" stroke-width="0.5"/>
</svg>
