<svg width="20" height="20" viewBox="0 0 20 20" fill="none" xmlns="http://www.w3.org/2000/svg">
<path d="M14.6084 6.47505C14.55 6.46672 14.4917 6.46672 14.4334 6.47505C13.1417 6.43338 12.1167 5.37505 12.1167 4.07505C12.1167 2.75005 13.1917 1.66672 14.525 1.66672C15.85 1.66672 16.9334 2.74172 16.9334 4.07505C16.925 5.37505 15.9 6.43338 14.6084 6.47505Z" fill="black"/>
<path d="M17.3252 12.2499C16.3918 12.8749 15.0835 13.1083 13.8752 12.9499C14.1918 12.2666 14.3585 11.5083 14.3668 10.7083C14.3668 9.87494 14.1835 9.08327 13.8335 8.39161C15.0668 8.22494 16.3752 8.45827 17.3168 9.08327C18.6335 9.94994 18.6335 11.3749 17.3252 12.2499Z" fill="black"/>
<path d="M5.36647 6.47505C5.4248 6.46672 5.48314 6.46672 5.54147 6.47505C6.83314 6.43338 7.85814 5.37505 7.85814 4.07505C7.85814 2.74172 6.78314 1.66672 5.4498 1.66672C4.1248 1.66672 3.0498 2.74172 3.0498 4.07505C3.0498 5.37505 4.0748 6.43338 5.36647 6.47505Z" fill="black"/>
<path d="M5.45843 10.7082C5.45843 11.5166 5.63343 12.2832 5.9501 12.9749C4.7751 13.0999 3.5501 12.8499 2.6501 12.2582C1.33343 11.3832 1.33343 9.95825 2.6501 9.08325C3.54176 8.48325 4.8001 8.24158 5.98343 8.37491C5.64176 9.07491 5.45843 9.86658 5.45843 10.7082Z" fill="black"/>
<path d="M10.0998 13.225C10.0331 13.2167 9.95809 13.2167 9.88309 13.225C8.34976 13.175 7.12476 11.9167 7.12476 10.3667C7.13309 8.78333 8.40809 7.5 9.99976 7.5C11.5831 7.5 12.8664 8.78333 12.8664 10.3667C12.8581 11.9167 11.6414 13.175 10.0998 13.225Z" fill="black"/>
<path d="M7.3915 14.95C6.13317 15.7917 6.13317 17.175 7.3915 18.0084C8.82484 18.9667 11.1748 18.9667 12.6082 18.0084C13.8665 17.1667 13.8665 15.7834 12.6082 14.95C11.1832 13.9917 8.83317 13.9917 7.3915 14.95Z" fill="black"/>
</svg>
