<svg width="16" height="15" viewBox="0 0 16 15" fill="none" xmlns="http://www.w3.org/2000/svg">
<path d="M14.8581 12.6967L14.8572 12.6958L10.4654 8.46406L10.4652 8.46383L9.47355 7.52089L14.8572 2.3464C14.9702 2.23782 15.0623 2.11674 15.1203 1.98286C15.1773 1.85131 15.212 1.70771 15.212 1.56296C15.212 1.41129 15.1896 1.26627 15.1196 1.13091C15.0632 1.00123 14.9835 0.869308 14.8791 0.768982L14.8791 0.768933L14.8771 0.767216C14.7653 0.670451 14.6401 0.582473 14.5016 0.527027C14.3626 0.471356 14.2025 0.449756 14.0559 0.449756C13.9061 0.449756 13.7577 0.482975 13.6114 0.537072L13.6114 0.537055L13.6102 0.537554C13.4717 0.592999 13.3459 0.68117 13.2436 0.779509L7.04468 6.73764C6.94078 6.8375 6.86053 6.959 6.80346 7.09065L6.80344 7.09065L6.80291 7.09196C6.7465 7.23295 6.71172 7.37621 6.71172 7.52108C6.71172 7.66583 6.74644 7.80944 6.80346 7.94099C6.86053 8.07263 6.94078 8.19414 7.04468 8.294L13.2436 14.2521L13.2436 14.2521L13.2446 14.2531C13.4629 14.4519 13.7492 14.5503 14.0449 14.5503C14.343 14.5503 14.6291 14.4292 14.8353 14.2311C15.0525 14.0223 15.168 13.7572 15.1682 13.4697C15.1795 13.1814 15.0639 12.9055 14.8581 12.6967Z" fill="#434343" fill-opacity="0.4" stroke="#B3B3B3" stroke-width="0.1"/>
<path d="M1.30397 2.30341L1.30489 2.30431L5.69671 6.53606L5.69695 6.53629L6.68856 7.47923L1.30493 12.6537C1.19196 12.7623 1.09984 12.8834 1.0418 13.0173C0.984779 13.1488 0.950061 13.2924 0.950061 13.4372C0.950061 13.5888 0.972501 13.7339 1.04251 13.8692C1.09891 13.9989 1.17865 14.1308 1.28303 14.2311L1.28298 14.2312L1.28496 14.2329C1.39682 14.3297 1.52206 14.4176 1.66051 14.4731C1.79952 14.5288 1.95958 14.5504 2.10623 14.5504C2.25602 14.5504 2.40437 14.5171 2.5507 14.463L2.55071 14.4631L2.55196 14.4626C2.6904 14.4071 2.81617 14.319 2.91849 14.2206L9.11743 8.26249C9.22133 8.16262 9.30158 8.04112 9.35865 7.90947L9.35867 7.90948L9.35919 7.90816C9.41561 7.76717 9.45039 7.62391 9.45039 7.47904C9.45039 7.33429 9.41567 7.19068 9.35865 7.05914C9.30158 6.92749 9.22133 6.80598 9.11743 6.70612L2.91849 0.747992L2.9185 0.74798L2.9175 0.747071C2.69917 0.548267 2.41293 0.449818 2.11719 0.449818C1.81912 0.449818 1.53301 0.570885 1.32684 0.769045C1.10965 0.977792 0.994137 1.2429 0.993871 1.53044C0.982627 1.81873 1.09819 2.09463 1.30397 2.30341Z" fill="#434343" fill-opacity="0.4" stroke="#B3B3B3" stroke-width="0.1"/>
</svg>
