<svg width="20" height="20" viewBox="0 0 20 20" fill="none" xmlns="http://www.w3.org/2000/svg">
<path d="M16.6666 10V15C16.6666 16.8417 15.1749 18.3334 13.3333 18.3334H6.66658C4.82492 18.3334 3.33325 16.8417 3.33325 15V10C3.33325 9.54169 3.70825 9.16669 4.16659 9.16669H5.80825C6.26658 9.16669 6.64158 9.54169 6.64158 10V12.6167C6.64158 13.2334 6.98325 13.8 7.52492 14.0917C7.76658 14.225 8.03325 14.2917 8.30825 14.2917C8.62492 14.2917 8.94159 14.2 9.21659 14.0167L10.0083 13.5L10.7416 13.9917C11.2499 14.3334 11.8999 14.375 12.4416 14.0834C12.9916 13.7917 13.3333 13.2334 13.3333 12.6084V10C13.3333 9.54169 13.7083 9.16669 14.1666 9.16669H15.8333C16.2916 9.16669 16.6666 9.54169 16.6666 10Z" fill="black"/>
<path d="M17.9166 5.83335V6.66669C17.9166 7.58335 17.4749 8.33335 16.2499 8.33335H3.74992C2.47492 8.33335 2.08325 7.58335 2.08325 6.66669V5.83335C2.08325 4.91669 2.47492 4.16669 3.74992 4.16669H16.2499C17.4749 4.16669 17.9166 4.91669 17.9166 5.83335Z" fill="black"/>
<path d="M9.69974 4.16665H5.09974C4.81641 3.85831 4.82474 3.38332 5.12474 3.08332L6.30807 1.89998C6.61641 1.59165 7.12474 1.59165 7.43307 1.89998L9.69974 4.16665Z" fill="black"/>
<path d="M14.8917 4.16665H10.2917L12.5584 1.89998C12.8667 1.59165 13.3751 1.59165 13.6834 1.89998L14.8667 3.08332C15.1667 3.38332 15.1751 3.85831 14.8917 4.16665Z" fill="black"/>
<path d="M11.6416 9.16669C12.1 9.16669 12.475 9.54169 12.475 10V12.6084C12.475 13.275 11.7333 13.675 11.1833 13.3L10.4333 12.8C10.1583 12.6167 9.79995 12.6167 9.51662 12.8L8.73328 13.3167C8.18328 13.6834 7.44995 13.2834 7.44995 12.625V10C7.44995 9.54169 7.82495 9.16669 8.28328 9.16669H11.6416Z" fill="black"/>
</svg>
