<svg width="14" height="13" viewBox="0 0 14 13" fill="none" xmlns="http://www.w3.org/2000/svg">
<path d="M10.8062 10.9715C9.66801 11.6553 8.3475 12.0173 6.99968 12.0152C3.51084 12.0152 0.608217 9.63739 0 6.49969C0.278819 5.07288 1.03629 3.76936 2.15982 2.78287L0.137172 0.866544L1.05209 0L13.8628 12.1328L12.9479 13L10.8062 10.9715ZM3.07603 3.65003C2.19663 4.40728 1.58389 5.40198 1.32061 6.49969C1.52267 7.3371 1.92835 8.11827 2.50534 8.78102C3.08233 9.44376 3.8147 9.96979 4.64416 10.3172C5.47362 10.6646 6.37725 10.8239 7.28314 10.7822C8.18902 10.7406 9.07213 10.4993 9.86218 10.0774L8.54998 8.83458C7.99139 9.16785 7.3298 9.31143 6.67372 9.24177C6.01765 9.17211 5.40604 8.89335 4.93922 8.45121C4.4724 8.00907 4.17808 7.4298 4.10454 6.80841C4.03099 6.18703 4.18258 5.56041 4.53445 5.03135L3.07603 3.65003ZM7.59107 7.92637L5.49337 5.94018C5.37824 6.21775 5.35114 6.52111 5.4154 6.81306C5.47966 7.10501 5.63249 7.37284 5.85514 7.58372C6.07779 7.7946 6.36057 7.93934 6.66882 8.00021C6.97706 8.06107 7.298 8.03541 7.59107 7.92637ZM12.6975 9.31443L11.7716 8.43747C12.2051 7.85399 12.5135 7.19564 12.6794 6.49969C12.5036 5.77019 12.1729 5.08217 11.7076 4.47747C11.2422 3.87277 10.6519 3.36401 9.97251 2.98214C9.29309 2.60026 8.53878 2.35324 7.75543 2.25609C6.97207 2.15894 6.17604 2.21369 5.41572 2.41701L4.39469 1.44996C5.20155 1.14967 6.08088 0.984208 6.99968 0.984208C10.4885 0.984208 13.3911 3.36199 14 6.49969C13.8018 7.52068 13.3555 8.48419 12.6975 9.31443ZM6.82045 3.74747C6.87954 3.74379 6.93929 3.74195 6.99968 3.74195C7.39723 3.7419 7.79058 3.81896 8.15549 3.96838C8.52039 4.11779 8.84913 4.3364 9.12144 4.61074C9.39375 4.88507 9.60386 5.20931 9.73882 5.56348C9.87378 5.91765 9.93074 6.29425 9.90618 6.67006L6.82045 3.74747Z" fill="#595858"/>
</svg>
