<svg width="20" height="20" viewBox="0 0 20 20" fill="none" xmlns="http://www.w3.org/2000/svg">
<path d="M16.6999 5.68341L11.8999 2.32508C10.5915 1.40841 8.5832 1.45841 7.32487 2.43341L3.14987 5.69174C2.31654 6.34174 1.6582 7.67508 1.6582 8.72508V14.4751C1.6582 16.6001 3.3832 18.3334 5.5082 18.3334H14.4915C16.6165 18.3334 18.3415 16.6084 18.3415 14.4834V8.83341C18.3415 7.70841 17.6165 6.32508 16.6999 5.68341ZM10.6249 15.0001C10.6249 15.3417 10.3415 15.6251 9.99987 15.6251C9.6582 15.6251 9.37487 15.3417 9.37487 15.0001V12.5001C9.37487 12.1584 9.6582 11.8751 9.99987 11.8751C10.3415 11.8751 10.6249 12.1584 10.6249 12.5001V15.0001Z" fill="white"/>
</svg>
