<svg width="36" height="25" viewBox="0 0 36 25" fill="none" xmlns="http://www.w3.org/2000/svg">
<rect y="0.16626" width="36" height="24.6857" rx="4" fill="black"/>
<path fill-rule="evenodd" clip-rule="evenodd" d="M18.2572 17.8134C17.0316 18.871 15.4418 19.5095 13.7045 19.5095C9.82819 19.5095 6.68579 16.3306 6.68579 12.4093C6.68579 8.48796 9.82819 5.30908 13.7045 5.30908C15.4418 5.30908 17.0316 5.94757 18.2572 7.00523C19.4828 5.94757 21.0727 5.30908 22.8099 5.30908C26.6863 5.30908 29.8286 8.48796 29.8286 12.4093C29.8286 16.3306 26.6863 19.5095 22.8099 19.5095C21.0727 19.5095 19.4828 18.871 18.2572 17.8134Z" fill="#ED0006"/>
<path fill-rule="evenodd" clip-rule="evenodd" d="M18.2573 17.8134C19.7664 16.5111 20.7234 14.5732 20.7234 12.4093C20.7234 10.2454 19.7664 8.30754 18.2573 7.00523C19.4829 5.94757 21.0728 5.30908 22.81 5.30908C26.6864 5.30908 29.8287 8.48796 29.8287 12.4093C29.8287 16.3306 26.6864 19.5095 22.81 19.5095C21.0728 19.5095 19.4829 18.871 18.2573 17.8134Z" fill="#F9A000"/>
<path fill-rule="evenodd" clip-rule="evenodd" d="M18.2573 7.00525C19.7664 8.30756 20.7233 10.2454 20.7233 12.4093C20.7233 14.5732 19.7664 16.511 18.2573 17.8133C16.7482 16.511 15.7913 14.5732 15.7913 12.4093C15.7913 10.2454 16.7482 8.30756 18.2573 7.00525Z" fill="#FF5E00"/>
</svg>
