<svg width="32" height="32" viewBox="0 0 32 32" fill="none" xmlns="http://www.w3.org/2000/svg">
<circle cx="16" cy="16" r="16" fill="white"/>
<path d="M11.0508 21.9492C10.7947 21.9492 10.5386 21.8521 10.344 21.656C9.95337 21.2654 9.95337 20.6321 10.344 20.2415L20.2439 10.3413C20.6348 9.95068 21.2681 9.95068 21.6587 10.3413C22.0493 10.7319 22.0493 11.3652 21.6587 11.7561L11.7585 21.656C11.5613 21.8521 11.3054 21.9492 11.0508 21.9492Z" fill="#434343"/>
<path d="M20.9492 21.9492C20.6933 21.9492 20.4372 21.8521 20.2426 21.656L10.3427 11.7573C9.95184 11.3667 9.95184 10.7334 10.3427 10.3428C10.7333 9.9519 11.3666 9.9519 11.7573 10.3428L21.6572 20.2427C22.048 20.6333 22.048 21.2666 21.6572 21.6572C21.4614 21.8521 21.2053 21.9492 20.9492 21.9492Z" fill="#434343"/>
</svg>
