<svg width="93" height="14" viewBox="0 0 93 14" fill="none" xmlns="http://www.w3.org/2000/svg">
<path d="M7.36104 11.6082L2.81252 14L3.68126 8.93493L0 5.34725L5.08567 4.6082L7.36104 0L9.63566 4.6082L14.7213 5.34725L11.0408 8.93493L11.9103 14L7.36104 11.6082Z" fill="#FFD05E"/>
<path d="M26.7983 11.6082L22.2498 14L23.1185 8.93493L19.4373 5.34725L24.5229 4.6082L26.7983 0L29.0729 4.6082L34.1586 5.34725L30.4781 8.93493L31.3475 14L26.7983 11.6082Z" fill="#FFD05E"/>
<path d="M46.2355 11.6082L41.687 14L42.5558 8.93493L38.8745 5.34725L43.9602 4.6082L46.2355 0L48.5102 4.6082L53.5958 5.34725L49.9153 8.93493L50.7848 14L46.2355 11.6082Z" fill="#FFD05E"/>
<path d="M65.673 11.6082L61.1245 14L61.9933 8.93493L58.312 5.34725L63.3977 4.6082L65.673 0L67.9477 4.6082L73.0333 5.34725L69.3528 8.93493L70.2223 14L65.673 11.6082Z" fill="#FFD05E"/>
<path d="M85.1105 11.6082L80.562 14L81.4308 8.93493L77.7495 5.34725L82.8352 4.6082L85.1105 0L87.3852 4.6082L92.4708 5.34725L88.7903 8.93493L89.6598 14L85.1105 11.6082Z" fill="#FFD05E"/>
</svg>
