<svg width="16" height="16" viewBox="0 0 16 16" fill="none" xmlns="http://www.w3.org/2000/svg">
<path d="M14.35 14.3562C14.2567 14.4482 14.131 14.4998 14 14.5C13.8672 14.4994 13.7397 14.448 13.6438 14.3562L10.9438 11.65C9.80662 12.6051 8.34465 13.0844 6.86276 12.9878C5.38086 12.8912 3.99346 12.2263 2.98991 11.1316C1.98636 10.037 1.44415 8.5972 1.47636 7.1125C1.50858 5.62782 2.11272 4.21288 3.1628 3.1628C4.21289 2.11272 5.62782 1.50857 7.11251 1.47636C8.5972 1.44414 10.037 1.98635 11.1316 2.9899C12.2263 3.99345 12.8912 5.38085 12.9878 6.86275C13.0844 8.34465 12.6051 9.80661 11.65 10.9437L14.35 13.6437C14.3972 13.6903 14.4348 13.7457 14.4604 13.8069C14.486 13.8681 14.4992 13.9337 14.4992 14C14.4992 14.0663 14.486 14.1319 14.4604 14.1931C14.4348 14.2543 14.3972 14.3097 14.35 14.3562ZM7.25001 12C8.18947 12 9.10783 11.7214 9.88896 11.1995C10.6701 10.6775 11.2789 9.93569 11.6384 9.06774C11.9979 8.1998 12.092 7.24473 11.9087 6.32332C11.7255 5.40191 11.2731 4.55554 10.6088 3.89124C9.94446 3.22694 9.09809 2.77455 8.17668 2.59127C7.25527 2.40799 6.30021 2.50205 5.43226 2.86157C4.56431 3.22109 3.82246 3.82991 3.30052 4.61104C2.77859 5.39217 2.50001 6.31054 2.50001 7.25C2.50166 8.50927 3.00264 9.71649 3.89307 10.6069C4.78351 11.4974 5.99073 11.9983 7.25001 12Z" fill="black" fill-opacity="0.4"/>
</svg>
