<svg width="369" height="121" viewBox="0 0 369 121" fill="none" xmlns="http://www.w3.org/2000/svg">
<path d="M69.326 9.63748C71.1033 9.98148 72.422 10.5835 73.282 11.4435C74.1993 12.3035 74.658 13.3068 74.658 14.4535C74.658 16.3455 74.1133 17.7215 73.024 18.5815C71.992 19.4415 70.3293 19.7855 68.036 19.6135C62.876 19.2122 58.834 18.9542 55.91 18.8395C53.0433 18.6675 49.2593 18.5528 44.558 18.4955C42.4367 29.0448 40.4873 39.6515 38.71 50.3155C38.0793 54.2142 37.42 58.7435 36.732 63.9035C36.044 69.0062 35.5853 73.1342 35.356 76.2875C35.2413 77.9502 34.5533 79.2402 33.292 80.1575C32.0307 81.0175 30.5113 81.4475 28.734 81.4475C26.842 81.4475 25.38 80.9888 24.348 80.0715C23.316 79.1542 22.8 77.9502 22.8 76.4595C22.8 75.0835 23.0007 72.8188 23.402 69.6655C23.8607 66.4548 24.3767 63.1008 24.95 59.6035C25.5807 56.1062 26.068 53.0675 26.412 50.4875C27.0427 46.1302 27.7593 41.8015 28.562 37.5015C29.3647 33.2015 30.1673 29.1308 30.97 25.2895C31.142 24.4295 31.3427 23.4548 31.572 22.3655C31.8013 21.2188 32.0593 19.9575 32.346 18.5815C26.7273 18.7535 22.3127 19.2121 19.102 19.9575C15.8913 20.7028 13.598 21.7635 12.222 23.1395C10.9033 24.4582 10.244 26.1782 10.244 28.2995C10.244 30.2488 10.8173 32.1121 11.964 33.8895C12.1933 34.2908 12.308 34.7208 12.308 35.1795C12.308 36.2688 11.6487 37.3008 10.33 38.2755C9.06867 39.1928 7.75 39.6515 6.374 39.6515C5.39933 39.6515 4.59667 39.3648 3.966 38.7915C2.81933 37.8168 1.87333 36.4408 1.128 34.6635C0.382667 32.8288 0.01 30.7648 0.01 28.4715C0.01 23.5982 1.58667 19.6995 4.74 16.7755C7.95067 13.7942 12.7953 11.6155 19.274 10.2395C25.81 8.86348 34.1807 8.17548 44.386 8.17548C50.6927 8.17548 55.7093 8.29015 59.436 8.51948C63.22 8.74882 66.5167 9.12148 69.326 9.63748ZM108.823 61.8395C109.568 61.8395 110.142 62.1835 110.543 62.8715C111.002 63.5595 111.231 64.5055 111.231 65.7095C111.231 68.0028 110.686 69.7802 109.597 71.0415C106.96 74.0802 104.236 76.5742 101.427 78.5235C98.6748 80.4728 95.5215 81.4475 91.9668 81.4475C89.0428 81.4475 86.8355 80.6162 85.3448 78.9535C83.8542 77.2335 83.1088 74.7682 83.1088 71.5575C83.1088 69.9522 83.5102 67.0855 84.3128 62.9575C85.0582 59.3455 85.4308 56.8515 85.4308 55.4755C85.4308 54.5582 85.1155 54.0995 84.4848 54.0995C83.7395 54.0995 82.6788 55.0742 81.3028 57.0235C79.9268 58.9155 78.5508 61.4382 77.1748 64.5915C75.7988 67.7448 74.6808 71.0702 73.8208 74.5675C72.7315 79.1542 70.0368 81.4475 65.7368 81.4475C64.0168 81.4475 62.8702 80.8455 62.2968 79.6415C61.7808 78.3802 61.5228 76.1442 61.5228 72.9335C61.5228 71.0988 61.5515 69.6368 61.6088 68.5475L61.6948 61.6675C61.6948 52.8382 62.5835 43.6362 64.3608 34.0615C66.1955 24.4868 68.8615 16.4601 72.3588 9.98148C75.9135 3.44548 80.1562 0.177482 85.0868 0.177482C87.7242 0.177482 89.8455 1.32415 91.4508 3.61748C93.1135 5.85348 93.9448 8.77748 93.9448 12.3895C93.9448 18.1802 92.2535 24.2002 88.8708 30.4495C85.4882 36.6415 79.9842 43.8942 72.3588 52.2075C72.1868 55.1888 72.1008 58.2562 72.1008 61.4095C73.9928 56.5362 76.0855 52.5802 78.3788 49.5415C80.7295 46.4455 83.0228 44.2382 85.2588 42.9195C87.5522 41.6008 89.6448 40.9415 91.5368 40.9415C95.2635 40.9415 97.1268 42.8048 97.1268 46.5315C97.1268 48.7675 96.4962 52.8095 95.2348 58.6575C94.1455 63.6455 93.6008 66.9422 93.6008 68.5475C93.6008 70.8408 94.4322 71.9875 96.0948 71.9875C97.2415 71.9875 98.5888 71.2995 100.137 69.9235C101.742 68.4902 103.864 66.1968 106.501 63.0435C107.189 62.2408 107.963 61.8395 108.823 61.8395ZM83.2808 8.69148C82.2488 8.69148 81.1022 10.1822 79.8408 13.1635C78.5795 16.0875 77.3468 20.0722 76.1428 25.1175C74.9962 30.1055 74.0502 35.5522 73.3048 41.4575C76.8595 37.2722 79.7835 32.7141 82.0768 27.7835C84.4275 22.8528 85.6028 18.3808 85.6028 14.3675C85.6028 12.5328 85.4022 11.1281 85.0008 10.1535C84.5995 9.17882 84.0262 8.69148 83.2808 8.69148ZM114.839 81.4475C111.284 81.4475 108.446 80.1575 106.325 77.5775C104.203 74.9975 103.143 71.6148 103.143 67.4295C103.143 62.8428 104.203 58.5142 106.325 54.4435C108.446 50.3155 111.255 47.0188 114.753 44.5535C118.307 42.0308 122.063 40.7695 126.019 40.7695C127.28 40.7695 128.111 41.0275 128.513 41.5435C128.971 42.0022 129.344 42.8622 129.631 44.1235C130.835 43.8942 132.096 43.7795 133.415 43.7795C136.224 43.7795 137.629 44.7828 137.629 46.7895C137.629 47.9935 137.199 50.8602 136.339 55.3895C135.02 61.9828 134.361 66.5695 134.361 69.1495C134.361 70.0095 134.561 70.6975 134.963 71.2135C135.421 71.7295 135.995 71.9875 136.683 71.9875C137.772 71.9875 139.091 71.2995 140.639 69.9235C142.187 68.4902 144.279 66.1968 146.917 63.0435C147.605 62.2408 148.379 61.8395 149.239 61.8395C149.984 61.8395 150.557 62.1835 150.959 62.8715C151.417 63.5595 151.647 64.5055 151.647 65.7095C151.647 68.0028 151.102 69.7802 150.013 71.0415C147.662 73.9655 145.168 76.4308 142.531 78.4375C139.893 80.4442 137.342 81.4475 134.877 81.4475C132.985 81.4475 131.236 80.8168 129.631 79.5555C128.083 78.2368 126.907 76.4595 126.105 74.2235C123.123 79.0395 119.368 81.4475 114.839 81.4475ZM117.935 72.7615C119.196 72.7615 120.4 72.0162 121.547 70.5255C122.693 69.0348 123.525 67.0568 124.041 64.5915L127.223 48.7675C124.815 48.8248 122.579 49.7422 120.515 51.5195C118.508 53.2395 116.903 55.5328 115.699 58.3995C114.495 61.2662 113.893 64.3048 113.893 67.5155C113.893 69.2928 114.237 70.6115 114.925 71.4715C115.67 72.3315 116.673 72.7615 117.935 72.7615ZM150.763 81.4475C148.585 81.4475 147.037 80.3008 146.119 78.0075C145.259 75.7142 144.829 72.0448 144.829 66.9995C144.829 59.5462 145.89 52.4655 148.011 45.7575C148.527 44.0948 149.359 42.8908 150.505 42.1455C151.709 41.3428 153.372 40.9415 155.493 40.9415C156.64 40.9415 157.443 41.0848 157.901 41.3715C158.36 41.6582 158.589 42.2028 158.589 43.0055C158.589 43.9228 158.159 45.9868 157.299 49.1975C156.726 51.4908 156.267 53.4975 155.923 55.2175C155.579 56.9375 155.293 59.0588 155.063 61.5815C156.955 56.6508 159.077 52.6375 161.427 49.5415C163.778 46.4455 166.071 44.2382 168.307 42.9195C170.601 41.6008 172.693 40.9415 174.585 40.9415C178.312 40.9415 180.175 42.8048 180.175 46.5315C180.175 48.7675 179.545 52.8095 178.283 58.6575C177.194 63.6455 176.649 66.9422 176.649 68.5475C176.649 70.8408 177.481 71.9875 179.143 71.9875C180.29 71.9875 181.637 71.2995 183.185 69.9235C184.791 68.4902 186.912 66.1968 189.549 63.0435C190.237 62.2408 191.011 61.8395 191.871 61.8395C192.617 61.8395 193.19 62.1835 193.591 62.8715C194.05 63.5595 194.279 64.5055 194.279 65.7095C194.279 68.0028 193.735 69.7802 192.645 71.0415C190.18 74.0802 187.514 76.5742 184.647 78.5235C181.838 80.4728 178.627 81.4475 175.015 81.4475C172.091 81.4475 169.884 80.6162 168.393 78.9535C166.903 77.2335 166.157 74.7682 166.157 71.5575C166.157 69.9522 166.559 67.0855 167.361 62.9575C168.107 59.3455 168.479 56.8515 168.479 55.4755C168.479 54.5582 168.164 54.0995 167.533 54.0995C166.788 54.0995 165.727 55.0742 164.351 57.0235C163.033 58.9155 161.657 61.4382 160.223 64.5915C158.847 67.7448 157.729 71.0702 156.869 74.5675C156.239 77.2622 155.493 79.0968 154.633 80.0715C153.831 80.9888 152.541 81.4475 150.763 81.4475ZM223.871 72.0735C226.222 72.5322 227.397 73.8222 227.397 75.9435C227.397 77.3768 226.738 78.6668 225.419 79.8135C224.158 80.9028 222.323 81.4475 219.915 81.4475C215.787 81.4475 212.405 80.1862 209.767 77.6635C207.187 75.0835 205.897 71.7295 205.897 67.6015C205.897 65.3655 207.044 63.7602 209.337 62.7855C211.86 61.6962 213.666 60.5495 214.755 59.3455C215.845 58.0842 216.389 56.5648 216.389 54.7875C216.389 53.7555 216.16 52.9815 215.701 52.4655C215.3 51.9495 214.784 51.6915 214.153 51.6915C212.605 51.6915 210.885 52.8095 208.993 55.0455C207.159 57.2815 205.439 60.1768 203.833 63.7315C202.228 67.2288 200.967 70.8408 200.049 74.5675C199.419 77.2622 198.673 79.0968 197.813 80.0715C197.011 80.9888 195.721 81.4475 193.943 81.4475C192.166 81.4475 190.847 80.8168 189.987 79.5555C189.185 78.2368 188.64 76.2302 188.353 73.5355C188.067 70.8408 187.923 66.8848 187.923 61.6675C187.923 52.8382 188.812 43.6362 190.589 34.0615C192.424 24.4868 195.09 16.4601 198.587 9.98148C202.142 3.44548 206.385 0.177482 211.315 0.177482C213.953 0.177482 216.074 1.32415 217.679 3.61748C219.342 5.85348 220.173 8.77748 220.173 12.3895C220.173 18.1802 218.482 24.2002 215.099 30.4495C211.717 36.6415 206.213 43.8942 198.587 52.2075C198.415 55.1888 198.329 58.2562 198.329 61.4095C201.081 54.2428 204.235 49.0542 207.789 45.8435C211.344 42.5755 214.669 40.9415 217.765 40.9415C220.632 40.9415 222.925 41.9162 224.645 43.8655C226.423 45.8148 227.311 48.2228 227.311 51.0895C227.311 54.2428 226.509 57.1382 224.903 59.7755C223.298 62.4128 220.546 64.7635 216.647 66.8275C216.991 68.5475 217.679 69.7515 218.711 70.4395C219.801 71.0702 221.521 71.6148 223.871 72.0735ZM209.509 8.69148C208.477 8.69148 207.331 10.1822 206.069 13.1635C204.808 16.0875 203.575 20.0722 202.371 25.1175C201.225 30.1055 200.279 35.5522 199.533 41.4575C203.088 37.2722 206.012 32.7141 208.305 27.7835C210.656 22.8528 211.831 18.3808 211.831 14.3675C211.831 12.5328 211.631 11.1281 211.229 10.1535C210.828 9.17882 210.255 8.69148 209.509 8.69148ZM298.961 62.0115C299.706 62.0115 300.279 62.3842 300.681 63.1295C301.139 63.8175 301.369 64.7062 301.369 65.7955C301.369 67.1142 301.168 68.1462 300.767 68.8915C300.365 69.6368 299.735 70.2962 298.875 70.8695L282.363 81.9635C280.184 93.8315 277.317 103.148 273.763 109.913C270.265 116.736 265.793 120.147 260.347 120.147C257.423 120.147 255.043 119.23 253.209 117.395C251.374 115.618 250.457 113.267 250.457 110.343C250.457 107.649 251.059 104.897 252.263 102.087C253.524 99.2782 255.817 96.0388 259.143 92.3695C262.525 88.7575 267.284 84.6008 273.419 79.8995L273.677 77.9215C274.078 75.8002 274.537 72.7615 275.053 68.8055C273.906 72.9335 272.301 76.0868 270.237 78.2655C268.173 80.3868 265.994 81.4475 263.701 81.4475C261.121 81.4475 258.999 80.2722 257.337 77.9215C255.731 75.5135 254.929 72.5322 254.929 68.9775C254.929 64.6775 255.215 60.7502 255.789 57.1955C256.362 53.5835 257.308 49.7708 258.627 45.7575C259.2 44.0375 260.003 42.8048 261.035 42.0595C262.067 41.3142 263.701 40.9415 265.937 40.9415C267.198 40.9415 268.058 41.1422 268.517 41.5435C269.033 41.9448 269.291 42.5468 269.291 43.3495C269.291 43.8082 268.975 45.3562 268.345 47.9935C267.771 50.1148 267.313 52.0355 266.969 53.7555C266.51 56.1062 266.109 58.3708 265.765 60.5495C265.421 62.6708 265.249 64.4195 265.249 65.7955C265.249 67.9742 265.851 69.0635 267.055 69.0635C267.915 69.0635 268.975 68.2035 270.237 66.4835C271.555 64.7635 272.931 62.1548 274.365 58.6575C275.855 55.1602 277.289 50.8602 278.665 45.7575C279.123 44.0375 279.811 42.8048 280.729 42.0595C281.703 41.3142 283.137 40.9415 285.029 40.9415C286.347 40.9415 287.265 41.1135 287.781 41.4575C288.297 41.8015 288.555 42.3748 288.555 43.1775C288.555 44.6108 287.809 49.5415 286.319 57.9695L284.083 71.8155C288.497 68.4902 292.797 65.4515 296.983 62.6995C297.728 62.2408 298.387 62.0115 298.961 62.0115ZM261.293 111.805C262.726 111.805 264.331 110.143 266.109 106.817C267.886 103.492 269.663 97.9595 271.441 90.2195C267.026 93.9462 263.815 97.3288 261.809 100.367C259.859 103.463 258.885 106.158 258.885 108.451C258.885 109.426 259.057 110.229 259.401 110.859C259.802 111.49 260.433 111.805 261.293 111.805ZM339.941 54.6155C340.686 54.6155 341.26 54.9882 341.661 55.7335C342.062 56.4788 342.263 57.4248 342.263 58.5715C342.263 61.3235 341.432 62.9575 339.769 63.4735C336.329 64.6775 332.545 65.3655 328.417 65.5375C327.328 70.3535 325.178 74.2235 321.967 77.1475C318.756 80.0142 315.116 81.4475 311.045 81.4475C307.605 81.4475 304.652 80.6162 302.187 78.9535C299.779 77.2908 297.944 75.0835 296.683 72.3315C295.422 69.5795 294.791 66.5982 294.791 63.3875C294.791 59.0302 295.622 55.1602 297.285 51.7775C298.948 48.3375 301.241 45.6715 304.165 43.7795C307.089 41.8302 310.328 40.8555 313.883 40.8555C318.24 40.8555 321.738 42.3748 324.375 45.4135C327.07 48.3948 328.646 52.0928 329.105 56.5075C331.8 56.3355 335.01 55.7622 338.737 54.7875C339.196 54.6728 339.597 54.6155 339.941 54.6155ZM311.733 72.3315C313.568 72.3315 315.144 71.5862 316.463 70.0955C317.839 68.6048 318.756 66.4548 319.215 63.6455C317.438 62.4415 316.062 60.8648 315.087 58.9155C314.17 56.9662 313.711 54.9022 313.711 52.7235C313.711 51.8062 313.797 50.8888 313.969 49.9715H313.539C311.246 49.9715 309.325 51.0895 307.777 53.3255C306.286 55.5042 305.541 58.6002 305.541 62.6135C305.541 65.7668 306.143 68.1748 307.347 69.8375C308.608 71.5002 310.07 72.3315 311.733 72.3315ZM343.826 81.4475C341.131 81.4475 338.953 80.3582 337.29 78.1795C335.685 75.9435 334.882 72.8762 334.882 68.9775C334.882 64.6775 335.169 60.7502 335.742 57.1955C336.315 53.5835 337.261 49.7708 338.58 45.7575C339.153 44.0375 339.956 42.8048 340.988 42.0595C342.02 41.3142 343.654 40.9415 345.89 40.9415C347.151 40.9415 348.011 41.1422 348.47 41.5435C348.986 41.9448 349.244 42.5468 349.244 43.3495C349.244 43.8082 348.929 45.3562 348.298 47.9935C347.725 50.1148 347.266 52.0355 346.922 53.7555C345.775 59.7755 345.202 63.7888 345.202 65.7955C345.202 66.9995 345.345 67.8595 345.632 68.3755C345.919 68.8342 346.377 69.0635 347.008 69.0635C347.868 69.0635 348.957 68.2035 350.276 66.4835C351.595 64.7062 352.971 62.0688 354.404 58.5715C355.895 55.0168 357.299 50.7455 358.618 45.7575C359.077 44.0375 359.765 42.8048 360.682 42.0595C361.657 41.3142 363.09 40.9415 364.982 40.9415C366.243 40.9415 367.132 41.2855 367.648 41.9735C368.221 42.6042 368.508 43.5788 368.508 44.8975C368.508 46.3308 368.393 47.9362 368.164 49.7135C367.935 51.4335 367.677 53.2108 367.39 55.0455C366.817 58.7148 366.358 62.0688 366.014 65.1075C365.67 68.0888 365.498 71.5002 365.498 75.3415C365.498 77.5202 365.039 79.0968 364.122 80.0715C363.262 80.9888 361.829 81.4475 359.822 81.4475C357.701 81.4475 356.21 80.9028 355.35 79.8135C354.547 78.6668 354.146 76.4882 354.146 73.2775C354.146 72.6468 354.203 71.2422 354.318 69.0635C353.343 73.0768 351.881 76.1442 349.932 78.2655C348.04 80.3868 346.005 81.4475 343.826 81.4475Z" fill="#40A574"/>
</svg>
