<svg width="36" height="25" viewBox="0 0 36 25" fill="none" xmlns="http://www.w3.org/2000/svg">
<rect y="0.16626" width="36" height="24.6857" rx="4" fill="#00579F"/>
<path d="M15.402 16.7086H13.3665L14.6396 8.8363H16.675L15.402 16.7086Z" fill="white"/>
<path d="M22.7801 9.02876C22.3786 8.86947 21.7418 8.6936 20.9544 8.6936C18.9442 8.6936 17.5287 9.76552 17.52 11.298C17.5033 12.4287 18.5335 13.0567 19.304 13.4337C20.0915 13.819 20.3592 14.0704 20.3592 14.4138C20.3512 14.9412 19.7228 15.1843 19.1368 15.1843C18.3241 15.1843 17.8887 15.059 17.2269 14.7656L16.9589 14.6398L16.6741 16.4069C17.1515 16.6244 18.031 16.8174 18.9442 16.8259C21.08 16.8259 22.4705 15.7706 22.487 14.1374C22.4951 13.2413 21.9512 12.5546 20.7784 11.9935C20.0665 11.6333 19.6305 11.3904 19.6305 11.0219C19.6388 10.6868 19.9992 10.3437 20.8029 10.3437C21.4646 10.3269 21.9508 10.4859 22.3191 10.6451L22.5033 10.7287L22.7801 9.02876Z" fill="white"/>
<path d="M25.4864 13.9197C25.6541 13.4675 26.2991 11.7171 26.2991 11.7171C26.2907 11.7339 26.4664 11.2565 26.5669 10.9634L26.7092 11.6418C26.7092 11.6418 27.0946 13.5261 27.1784 13.9197C26.8602 13.9197 25.8885 13.9197 25.4864 13.9197ZM27.999 8.8363H26.4246C25.939 8.8363 25.5702 8.97856 25.3607 9.48947L22.3372 16.7085H24.473C24.473 16.7085 24.8246 15.7368 24.9002 15.5276C25.1345 15.5276 27.2122 15.5276 27.5136 15.5276C27.5721 15.804 27.7565 16.7085 27.7565 16.7085H29.6412L27.999 8.8363Z" fill="white"/>
<path d="M11.6662 8.8363L9.6727 14.2044L9.45487 13.1157C9.08632 11.8595 7.93048 10.4946 6.64062 9.81594L8.46655 16.7002H10.6191L13.8185 8.8363H11.6662Z" fill="white"/>
<path d="M7.8214 8.8363H4.54644L4.51294 8.99537C7.06761 9.64864 8.75952 11.2233 9.45465 13.1161L8.74271 9.49804C8.6255 8.99525 8.2653 8.85289 7.8214 8.8363Z" fill="#FAA61A"/>
</svg>
